<?xml version="1.0" encoding="UTF-8" standalone="no"?>
<!-- Created with Inkscape (http://www.inkscape.org/) -->

<svg
   xmlns:dc="http://purl.org/dc/elements/1.1/"
   xmlns:cc="http://creativecommons.org/ns#"
   xmlns:rdf="http://www.w3.org/1999/02/22-rdf-syntax-ns#"
   xmlns:svg="http://www.w3.org/2000/svg"
   xmlns="http://www.w3.org/2000/svg"
   xmlns:sodipodi="http://sodipodi.sourceforge.net/DTD/sodipodi-0.dtd"
   xmlns:inkscape="http://www.inkscape.org/namespaces/inkscape"
   width="48"
   height="48"
   id="svg2"
   version="1.1"
   inkscape:version="0.48.3.1 r9886"
   sodipodi:docname="New document 1">
  <defs
     id="defs4" />
  <sodipodi:namedview
     id="base"
     pagecolor="#ffffff"
     bordercolor="#666666"
     borderopacity="1.0"
     inkscape:pageopacity="0.0"
     inkscape:pageshadow="2"
     inkscape:zoom="2.3201643"
     inkscape:cx="-150.61566"
     inkscape:cy="64.30604"
     inkscape:document-units="px"
     inkscape:current-layer="layer1"
     showgrid="false"
     fit-margin-top="0"
     fit-margin-left="0"
     fit-margin-right="0"
     fit-margin-bottom="0"
     inkscape:window-width="1871"
     inkscape:window-height="1056"
     inkscape:window-x="49"
     inkscape:window-y="24"
     inkscape:window-maximized="1" />
  <metadata
     id="metadata7">
    <rdf:RDF>
      <cc:Work
         rdf:about="">
        <dc:format>image/svg+xml</dc:format>
        <dc:type
           rdf:resource="http://purl.org/dc/dcmitype/StillImage" />
        <dc:title></dc:title>
      </cc:Work>
    </rdf:RDF>
  </metadata>
  <g
     inkscape:label="Layer 1"
     inkscape:groupmode="layer"
     id="layer1"
     transform="translate(-557.89367,-631.65625)">
    <rect
       style="fill:#f3ff54;fill-opacity:1;stroke:#ffbb00;stroke-width:0.58977771;stroke-linecap:butt;stroke-miterlimit:4;stroke-opacity:1;stroke-dasharray:none;stroke-dashoffset:13.9013997"
       id="rect3827"
       width="1.4700345"
       height="15.041672"
       x="561.6156"
       y="656.24048" />
    <rect
       y="662.68848"
       x="581.80255"
       height="16.656237"
       width="1.4700345"
       id="rect3829"
       style="fill:#f3ff54;fill-opacity:1;stroke:#ffbb00;stroke-width:0.62062424;stroke-linecap:butt;stroke-miterlimit:4;stroke-opacity:1;stroke-dasharray:none;stroke-dashoffset:13.9013997" />
    <rect
       style="fill:#f3ff54;fill-opacity:1;stroke:#ffbb00;stroke-width:0.64017349;stroke-linecap:butt;stroke-miterlimit:4;stroke-opacity:1;stroke-dasharray:none;stroke-dashoffset:13.9013997"
       id="rect3831"
       width="1.4700345"
       height="17.722082"
       x="599.33704"
       y="652.89423" />
    <path
       sodipodi:type="arc"
       style="fill:#008f0c;fill-opacity:1;stroke:#143e0a;stroke-width:7.72300005;stroke-linecap:butt;stroke-miterlimit:4;stroke-opacity:1;stroke-dasharray:none;stroke-dashoffset:13.9013997"
       id="path3050"
       sodipodi:cx="696.62921"
       sodipodi:cy="758.2049"
       sodipodi:rx="109.66292"
       sodipodi:ry="65.842697"
       d="m 806.29213,758.2049 a 109.66292,65.842697 0 1 1 -219.32584,0 109.66292,65.842697 0 1 1 219.32584,0 z"
       transform="matrix(0.20482793,0,0,0.20466393,439.267,497.37158)" />
    <path
       style="fill:#777777;fill-opacity:1;stroke:#000000;stroke-width:1.11048281;stroke-linecap:butt;stroke-miterlimit:4;stroke-opacity:1;stroke-dasharray:none;stroke-dashoffset:13.9013997"
       d="m 565.36619,639.61273 0,10.76445 c -0.0784,0.36633 -0.11925,0.7382 -0.11925,1.11651 0,5.07813 7.26801,9.19385 16.23488,9.19385 8.96688,0 16.23489,-4.11572 16.23489,-9.19385 0,-0.38748 -0.0428,-0.76834 -0.12493,-1.14322 l 0,-10.73774 -32.22559,0 z"
       id="path3054"
       inkscape:connector-curvature="0" />
    <path
       transform="matrix(0.14805333,0,0,0.11944725,478.34215,549.51859)"
       d="m 806.29213,758.2049 a 109.66292,65.842697 0 1 1 -219.32584,0 109.66292,65.842697 0 1 1 219.32584,0 z"
       sodipodi:ry="65.842697"
       sodipodi:rx="109.66292"
       sodipodi:cy="758.2049"
       sodipodi:cx="696.62921"
       id="path3052"
       style="fill:#e2e2e2;fill-opacity:1;stroke:#000000;stroke-width:7.72300005;stroke-linecap:butt;stroke-miterlimit:4;stroke-opacity:1;stroke-dasharray:none;stroke-dashoffset:13.9013997"
       sodipodi:type="arc" />
    <path
       transform="matrix(0.14733424,0.13163248,-0.12106646,0.13550786,572.95962,463.67907)"
       d="m 667.41575,776.63184 a 32.58427,25.842697 0 1 1 -65.16854,0 32.58427,25.842697 0 1 1 65.16854,0 z"
       sodipodi:ry="25.842697"
       sodipodi:rx="32.58427"
       sodipodi:cy="776.63184"
       sodipodi:cx="634.83148"
       id="path3835"
       style="fill:#a9a9a9;fill-opacity:1;stroke:#4d4d4d;stroke-width:3.523;stroke-linecap:butt;stroke-miterlimit:4;stroke-opacity:1;stroke-dasharray:none;stroke-dashoffset:13.9013997"
       sodipodi:type="arc" />
    <path
       sodipodi:type="arc"
       style="fill:#a9a9a9;fill-opacity:1;stroke:#4d4d4d;stroke-width:3.523;stroke-linecap:butt;stroke-miterlimit:4;stroke-opacity:1;stroke-dasharray:none;stroke-dashoffset:13.9013997"
       id="path3833"
       sodipodi:cx="634.83148"
       sodipodi:cy="776.63184"
       sodipodi:rx="32.58427"
       sodipodi:ry="25.842697"
       d="m 667.41575,776.63184 a 32.58427,25.842697 0 1 1 -65.16854,0 32.58427,25.842697 0 1 1 65.16854,0 z"
       transform="matrix(0.14733424,0.13163248,-0.12106646,0.13550786,572.14293,464.9041)" />
    <path
       sodipodi:type="arc"
       style="fill:#a9a9a9;fill-opacity:1;stroke:#4d4d4d;stroke-width:3.523;stroke-linecap:butt;stroke-miterlimit:4;stroke-opacity:1;stroke-dasharray:none;stroke-dashoffset:13.9013997"
       id="path3837"
       sodipodi:cx="634.83148"
       sodipodi:cy="776.63184"
       sodipodi:rx="32.58427"
       sodipodi:ry="25.842697"
       d="m 667.41575,776.63184 a 32.58427,25.842697 0 1 1 -65.16854,0 32.58427,25.842697 0 1 1 65.16854,0 z"
       transform="matrix(-0.14733424,0.13163248,0.12106646,0.13550786,589.90736,463.40069)" />
    <path
       transform="matrix(-0.14733424,0.13163248,0.12106646,0.13550786,590.72404,464.62571)"
       d="m 667.41575,776.63184 a 32.58427,25.842697 0 1 1 -65.16854,0 32.58427,25.842697 0 1 1 65.16854,0 z"
       sodipodi:ry="25.842697"
       sodipodi:rx="32.58427"
       sodipodi:cy="776.63184"
       sodipodi:cx="634.83148"
       id="path3839"
       style="fill:#a9a9a9;fill-opacity:1;stroke:#4d4d4d;stroke-width:3.523;stroke-linecap:butt;stroke-miterlimit:4;stroke-opacity:1;stroke-dasharray:none;stroke-dashoffset:13.9013997"
       sodipodi:type="arc" />
    <rect
       style="fill:#2a2a2a;fill-opacity:1;stroke:#000000;stroke-width:0.64017349;stroke-linecap:butt;stroke-miterlimit:4;stroke-opacity:1;stroke-dasharray:none;stroke-dashoffset:13.9013997"
       id="rect3841"
       width="6.6968236"
       height="1.9600461"
       x="578.93127"
       y="661.11597" />
    <rect
       y="656.18744"
       x="581.04779"
       height="5.0102015"
       width="0.66020298"
       id="rect3843"
       style="fill:#f3ff54;fill-opacity:1;stroke:#ffbb00;stroke-width:0.22810924;stroke-linecap:butt;stroke-miterlimit:4;stroke-opacity:1;stroke-dasharray:none;stroke-dashoffset:13.9013997" />
    <rect
       style="fill:#f3ff54;fill-opacity:1;stroke:#ffbb00;stroke-width:0.22810924;stroke-linecap:butt;stroke-miterlimit:4;stroke-opacity:1;stroke-dasharray:none;stroke-dashoffset:13.9013997"
       id="rect3845"
       width="0.66020298"
       height="5.0102015"
       x="582.76282"
       y="656.18744" />
  </g>
</svg>
